<mxfile host="app.diagrams.net" agent="Mozilla/5.0 (Windows NT 10.0; Win64; x64) AppleWebKit/537.36 (KHTML, like Gecko) Chrome/136.0.0.0 Safari/537.36" version="27.0.9">
  <diagram name="Página-1" id="VSAn6qQrZAM1wNjJP-i0">
    <mxGraphModel dx="1106" dy="571" grid="1" gridSize="10" guides="1" tooltips="1" connect="1" arrows="1" fold="1" page="1" pageScale="1" pageWidth="827" pageHeight="1169" math="0" shadow="0">
      <root>
        <mxCell id="0" />
        <mxCell id="1" parent="0" />
        <mxCell id="TSxPEw_RBaA6ccUE5Sll-31" value="" style="edgeStyle=orthogonalEdgeStyle;rounded=0;orthogonalLoop=1;jettySize=auto;html=1;strokeColor=light-dark(#000000,#FF0000);" parent="1" source="jalb1bHRolFrZ5tOAi4d-8" target="TSxPEw_RBaA6ccUE5Sll-29" edge="1">
          <mxGeometry relative="1" as="geometry" />
        </mxCell>
        <mxCell id="TSxPEw_RBaA6ccUE5Sll-10" value="" style="rounded=1;whiteSpace=wrap;html=1;strokeColor=light-dark(#000000,#33FFFF);" parent="1" vertex="1">
          <mxGeometry y="200" width="120" height="80" as="geometry" />
        </mxCell>
        <mxCell id="TSxPEw_RBaA6ccUE5Sll-23" value="input audio" style="text;html=1;align=center;verticalAlign=middle;whiteSpace=wrap;rounded=0;fontSize=17;" parent="1" vertex="1">
          <mxGeometry x="20" y="220" width="80" height="40" as="geometry" />
        </mxCell>
        <mxCell id="TSxPEw_RBaA6ccUE5Sll-39" style="edgeStyle=orthogonalEdgeStyle;rounded=0;orthogonalLoop=1;jettySize=auto;html=1;exitX=0.5;exitY=0;exitDx=0;exitDy=0;entryX=0;entryY=0.5;entryDx=0;entryDy=0;strokeColor=light-dark(#000000,#FF3333);fontSize=16;jumpSize=14;" parent="1" source="TSxPEw_RBaA6ccUE5Sll-28" target="TSxPEw_RBaA6ccUE5Sll-35" edge="1">
          <mxGeometry relative="1" as="geometry">
            <Array as="points">
              <mxPoint x="220" y="40" />
            </Array>
          </mxGeometry>
        </mxCell>
        <mxCell id="TSxPEw_RBaA6ccUE5Sll-40" style="edgeStyle=orthogonalEdgeStyle;rounded=0;orthogonalLoop=1;jettySize=auto;html=1;exitX=0.5;exitY=1;exitDx=0;exitDy=0;entryX=0;entryY=0.5;entryDx=0;entryDy=0;strokeColor=light-dark(#000000,#FF0000);" parent="1" source="TSxPEw_RBaA6ccUE5Sll-28" target="TSxPEw_RBaA6ccUE5Sll-38" edge="1">
          <mxGeometry relative="1" as="geometry" />
        </mxCell>
        <mxCell id="jalb1bHRolFrZ5tOAi4d-1" style="edgeStyle=orthogonalEdgeStyle;rounded=0;orthogonalLoop=1;jettySize=auto;html=1;exitX=1;exitY=1;exitDx=0;exitDy=0;entryX=0;entryY=0.5;entryDx=0;entryDy=0;strokeColor=light-dark(#000000,#FF0000);" edge="1" parent="1" source="TSxPEw_RBaA6ccUE5Sll-28" target="TSxPEw_RBaA6ccUE5Sll-37">
          <mxGeometry relative="1" as="geometry">
            <Array as="points">
              <mxPoint x="280" y="260" />
              <mxPoint x="280" y="360" />
            </Array>
          </mxGeometry>
        </mxCell>
        <mxCell id="jalb1bHRolFrZ5tOAi4d-3" style="edgeStyle=orthogonalEdgeStyle;rounded=0;orthogonalLoop=1;jettySize=auto;html=1;exitX=1;exitY=0;exitDx=0;exitDy=0;entryX=0;entryY=0.25;entryDx=0;entryDy=0;strokeColor=light-dark(#000000,#FF3333);" edge="1" parent="1" source="TSxPEw_RBaA6ccUE5Sll-28" target="TSxPEw_RBaA6ccUE5Sll-36">
          <mxGeometry relative="1" as="geometry">
            <Array as="points">
              <mxPoint x="280" y="220" />
              <mxPoint x="280" y="140" />
            </Array>
          </mxGeometry>
        </mxCell>
        <mxCell id="TSxPEw_RBaA6ccUE5Sll-28" value="" style="rhombus;whiteSpace=wrap;html=1;strokeColor=light-dark(#000000,#FF99CC);" parent="1" vertex="1">
          <mxGeometry x="170" y="200" width="100" height="80" as="geometry" />
        </mxCell>
        <mxCell id="TSxPEw_RBaA6ccUE5Sll-29" value="processamento" style="text;html=1;align=center;verticalAlign=middle;whiteSpace=wrap;rounded=0;" parent="1" vertex="1">
          <mxGeometry x="190" y="225" width="60" height="30" as="geometry" />
        </mxCell>
        <mxCell id="TSxPEw_RBaA6ccUE5Sll-35" value="" style="whiteSpace=wrap;html=1;aspect=fixed;strokeColor=light-dark(#000000,#FFFF00);" parent="1" vertex="1">
          <mxGeometry x="334" width="80" height="80" as="geometry" />
        </mxCell>
        <mxCell id="jalb1bHRolFrZ5tOAi4d-18" style="edgeStyle=orthogonalEdgeStyle;rounded=0;orthogonalLoop=1;jettySize=auto;html=1;exitX=1;exitY=0.5;exitDx=0;exitDy=0;entryX=0;entryY=0.5;entryDx=0;entryDy=0;strokeColor=light-dark(#000000,#00FF00);" edge="1" parent="1" source="TSxPEw_RBaA6ccUE5Sll-36" target="jalb1bHRolFrZ5tOAi4d-16">
          <mxGeometry relative="1" as="geometry" />
        </mxCell>
        <mxCell id="TSxPEw_RBaA6ccUE5Sll-36" value="" style="whiteSpace=wrap;html=1;aspect=fixed;strokeColor=light-dark(#000000,#FFFF33);" parent="1" vertex="1">
          <mxGeometry x="334" y="120" width="80" height="80" as="geometry" />
        </mxCell>
        <mxCell id="jalb1bHRolFrZ5tOAi4d-20" style="edgeStyle=orthogonalEdgeStyle;rounded=0;orthogonalLoop=1;jettySize=auto;html=1;exitX=1;exitY=0.5;exitDx=0;exitDy=0;entryX=0;entryY=0.75;entryDx=0;entryDy=0;strokeColor=light-dark(#000000,#00FF00);" edge="1" parent="1" source="TSxPEw_RBaA6ccUE5Sll-37" target="jalb1bHRolFrZ5tOAi4d-16">
          <mxGeometry relative="1" as="geometry" />
        </mxCell>
        <mxCell id="TSxPEw_RBaA6ccUE5Sll-37" value="" style="whiteSpace=wrap;html=1;aspect=fixed;strokeColor=light-dark(#000000,#FFFF00);" parent="1" vertex="1">
          <mxGeometry x="334" y="320" width="80" height="80" as="geometry" />
        </mxCell>
        <mxCell id="jalb1bHRolFrZ5tOAi4d-19" style="edgeStyle=orthogonalEdgeStyle;rounded=0;orthogonalLoop=1;jettySize=auto;html=1;exitX=1;exitY=0.5;exitDx=0;exitDy=0;entryX=0;entryY=1;entryDx=0;entryDy=0;strokeColor=light-dark(#000000,#00FF00);" edge="1" parent="1" source="TSxPEw_RBaA6ccUE5Sll-38" target="jalb1bHRolFrZ5tOAi4d-16">
          <mxGeometry relative="1" as="geometry" />
        </mxCell>
        <mxCell id="TSxPEw_RBaA6ccUE5Sll-38" value="" style="whiteSpace=wrap;html=1;aspect=fixed;strokeColor=light-dark(#000000,#FFFF00);" parent="1" vertex="1">
          <mxGeometry x="334" y="440" width="80" height="80" as="geometry" />
        </mxCell>
        <mxCell id="jalb1bHRolFrZ5tOAi4d-4" value="filtragem dos sons" style="text;html=1;align=center;verticalAlign=middle;whiteSpace=wrap;rounded=0;" vertex="1" parent="1">
          <mxGeometry x="344" y="25" width="60" height="30" as="geometry" />
        </mxCell>
        <mxCell id="jalb1bHRolFrZ5tOAi4d-5" value="classificação&amp;nbsp;&lt;div&gt;das notas obtidas&lt;/div&gt;" style="text;html=1;align=center;verticalAlign=middle;whiteSpace=wrap;rounded=0;" vertex="1" parent="1">
          <mxGeometry x="344" y="145" width="60" height="30" as="geometry" />
        </mxCell>
        <mxCell id="jalb1bHRolFrZ5tOAi4d-6" value="enquadra-&lt;div&gt;mento de tons&lt;/div&gt;" style="text;html=1;align=center;verticalAlign=middle;whiteSpace=wrap;rounded=0;" vertex="1" parent="1">
          <mxGeometry x="344" y="345" width="60" height="30" as="geometry" />
        </mxCell>
        <mxCell id="jalb1bHRolFrZ5tOAi4d-7" value="afinação" style="text;html=1;align=center;verticalAlign=middle;whiteSpace=wrap;rounded=0;" vertex="1" parent="1">
          <mxGeometry x="344" y="465" width="60" height="30" as="geometry" />
        </mxCell>
        <mxCell id="jalb1bHRolFrZ5tOAi4d-9" style="edgeStyle=orthogonalEdgeStyle;rounded=0;orthogonalLoop=1;jettySize=auto;html=1;exitX=0.5;exitY=0;exitDx=0;exitDy=0;entryX=0.6;entryY=0.18;entryDx=0;entryDy=0;entryPerimeter=0;" edge="1" parent="1" source="jalb1bHRolFrZ5tOAi4d-8" target="jalb1bHRolFrZ5tOAi4d-8">
          <mxGeometry relative="1" as="geometry" />
        </mxCell>
        <mxCell id="jalb1bHRolFrZ5tOAi4d-10" value="" style="edgeStyle=orthogonalEdgeStyle;rounded=0;orthogonalLoop=1;jettySize=auto;html=1;strokeColor=light-dark(#000000,#FF0000);" edge="1" parent="1" source="TSxPEw_RBaA6ccUE5Sll-10" target="jalb1bHRolFrZ5tOAi4d-8">
          <mxGeometry relative="1" as="geometry">
            <mxPoint x="120" y="240" as="sourcePoint" />
            <mxPoint x="190" y="240" as="targetPoint" />
          </mxGeometry>
        </mxCell>
        <mxCell id="jalb1bHRolFrZ5tOAi4d-13" style="edgeStyle=orthogonalEdgeStyle;rounded=0;orthogonalLoop=1;jettySize=auto;html=1;exitX=0.5;exitY=0;exitDx=0;exitDy=0;entryX=0.5;entryY=1;entryDx=0;entryDy=0;" edge="1" parent="1" source="jalb1bHRolFrZ5tOAi4d-8" target="jalb1bHRolFrZ5tOAi4d-12">
          <mxGeometry relative="1" as="geometry" />
        </mxCell>
        <mxCell id="jalb1bHRolFrZ5tOAi4d-8" value="" style="rhombus;whiteSpace=wrap;html=1;strokeColor=light-dark(#000000,#00FF00);fillColor=light-dark(#FFFFFF,#FFFF33);" vertex="1" parent="1">
          <mxGeometry x="130" y="220" width="30" height="35" as="geometry" />
        </mxCell>
        <mxCell id="jalb1bHRolFrZ5tOAi4d-12" value="filtragem de ruídos" style="text;html=1;align=center;verticalAlign=middle;whiteSpace=wrap;rounded=0;" vertex="1" parent="1">
          <mxGeometry x="90" y="120" width="60" height="30" as="geometry" />
        </mxCell>
        <mxCell id="jalb1bHRolFrZ5tOAi4d-16" value="" style="rounded=1;whiteSpace=wrap;html=1;strokeColor=light-dark(#000000,#FF33FF);" vertex="1" parent="1">
          <mxGeometry x="560" y="185" width="190" height="110" as="geometry" />
        </mxCell>
        <mxCell id="jalb1bHRolFrZ5tOAi4d-17" style="edgeStyle=orthogonalEdgeStyle;rounded=0;orthogonalLoop=1;jettySize=auto;html=1;exitX=1;exitY=0.5;exitDx=0;exitDy=0;entryX=-0.005;entryY=0.2;entryDx=0;entryDy=0;entryPerimeter=0;strokeColor=light-dark(#000000,#00FF00);" edge="1" parent="1">
          <mxGeometry relative="1" as="geometry">
            <mxPoint x="414.95" y="40" as="sourcePoint" />
            <mxPoint x="560" y="207" as="targetPoint" />
          </mxGeometry>
        </mxCell>
        <mxCell id="jalb1bHRolFrZ5tOAi4d-21" value="&lt;font style=&quot;font-size: 16px;&quot;&gt;nota obtida após o processamento&lt;/font&gt;" style="text;html=1;align=center;verticalAlign=middle;whiteSpace=wrap;rounded=0;" vertex="1" parent="1">
          <mxGeometry x="570" y="190" width="170" height="100" as="geometry" />
        </mxCell>
      </root>
    </mxGraphModel>
  </diagram>
</mxfile>
